%
M48
M72
T01C0.0240
T02C0.0280
T03C0.0350
T04C0.0420
T05C0.0430
T06C0.1250
T07C0.1440
%
T01
X8652Y5401
X8652Y7401
X10402Y9151
X10452Y10251
X10402Y10951
X10552Y12401
X11752Y12201
X12302Y11101
X12852Y10401
X13402Y9701
X14302Y10651
X14852Y10751
X14652Y12201
X14902Y12751
X15902Y12351
X16102Y13001
X17952Y13801
X18052Y14451
X15752Y15101
X15352Y14251
X14052Y14651
X13452Y14051
X11952Y14151
X11652Y14801
X11402Y15601
X10752Y15951
X11452Y17151
X13802Y16601
X14652Y17201
X14902Y16601
X16002Y17101
X16552Y16601
X17852Y17001
X18552Y16701
X19552Y17201
X19852Y16651
X21102Y17401
X21352Y16651
X22302Y15701
X21802Y15201
X21852Y14151
X22902Y16401
X24902Y15601
X25052Y13651
X26852Y11501
X29202Y9801
X29402Y10551
X26752Y8651
X28202Y7951
X25152Y7551
X22752Y7351
X25002Y5751
X25002Y4751
X23252Y4351
X25252Y2851
X26752Y4101
X31552Y5601
X33202Y9451
X37152Y10451
X37452Y12751
X38402Y12751
X39452Y12751
X40502Y12351
X41402Y10901
X42752Y12351
X44752Y12351
X46752Y12351
X49752Y12351
X43502Y16101
X41802Y16701
X40952Y16701
X40252Y16701
X39502Y16701
X39502Y18801
X40252Y18801
X41002Y18801
X41752Y18801
X38952Y20301
X38402Y20051
X37302Y20351
X37252Y19301
X37852Y19301
X36602Y19051
X35952Y19051
X35352Y18801
X37752Y21451
X38402Y23101
X39652Y23151
X35152Y27651
X30902Y29401
X28902Y29151
X28902Y30901
X25902Y31901
X24102Y30051
X24902Y29001
X24952Y28301
X24402Y26401
X23202Y26251
X23302Y24251
X23402Y23601
X23252Y22951
X23752Y22651
X23852Y22051
X25102Y22101
X25002Y22651
X25952Y22101
X27402Y22301
X28902Y22451
X29002Y21751
X30952Y22001
X31002Y22701
X30702Y23351
X27352Y23701
X26402Y24401
X26902Y24951
X26202Y25301
X25402Y24751
X29002Y26851
X30302Y26651
X27652Y20151
X26652Y19101
X24402Y19701
X19752Y20851
X19152Y19651
X18202Y19501
X16802Y20051
X16902Y21151
X14902Y21901
X14902Y19901
X12152Y19901
X12152Y21901
X14902Y23901
X19552Y24051
X19752Y23551
X20052Y22951
X20402Y24901
X19402Y25251
X18252Y28301
X19252Y29501
X19752Y29151
X20252Y29501
X20752Y29151
X21252Y29501
X21802Y29151
X18152Y31851
X18652Y32251
X17652Y32251
X13902Y32151
X13902Y28401
X10402Y25651
X9152Y28401
X9152Y32151
X9152Y34901
X10902Y39901
X15402Y39901
X20902Y39901
X25152Y36301
X27402Y35151
X27452Y37351
X34652Y35151
X39652Y31901
X41902Y29651
X46152Y28901
X46152Y27901
X49902Y29901
X52652Y27526
X49902Y25651
X49902Y19651
X46152Y19901
X46152Y18801
X46152Y17151
X36452Y12751
X34502Y15851
X32252Y15851
X31102Y19701
X22252Y11351
X20652Y11251
X19602Y12201
X19252Y10851
X18302Y10851
X17602Y11651
X17002Y11351
X16102Y9601
X16002Y7751
X16852Y7751
X17302Y7201
X18752Y6701
X19302Y8651
X14252Y7351
X11902Y7651
X11902Y5401
X10402Y3876
X11227Y2126
X13652Y2151
X16402Y2151
X19402Y2151
X14852Y5051
X25002Y9601
X39752Y2601
X43252Y2351
X43402Y3351
X43402Y4051
X45002Y2351
X48502Y5351
X49752Y4351
X47252Y6351
X40552Y8551
X51777Y526
X62152Y27526
X60702Y29351
X61327Y30801
X58902Y31151
X58402Y37851
X57702Y37851
X58077Y39126
X56977Y39126
X51777Y40276
X49902Y36151
X45902Y36151
X45902Y37901
X45902Y39901
X43152Y39901
X39652Y39901
X41402Y35151
X46152Y31401
X8152Y17401
T02
X30602Y7101
X33052Y8201
X33602Y7151
X35052Y8801
X36502Y7901
X37252Y7901
X37202Y5351
X38027Y4151
X37252Y2051
X35902Y2551
X33852Y3501
X32002Y4751
X29952Y3101
X32152Y1901
X40902Y2551
X40902Y3651
X40802Y6351
X42802Y8751
X44402Y7801
X48102Y8101
T03
X46902Y5151
X42902Y5151
T04
X42902Y13901
X43902Y13901
X44902Y13901
X45902Y13901
X46902Y13901
X47902Y13901
X47902Y14901
X46902Y14901
X45902Y14901
X44902Y14901
X43902Y14901
X42902Y14901
X41902Y14901
X40902Y14901
X40902Y13901
X41902Y13901
X39902Y13901
X38902Y13901
X37902Y13901
X36902Y13901
X35902Y13901
X34902Y13901
X33902Y13901
X32902Y13901
X31902Y13901
X30902Y13901
X29902Y13901
X28902Y13901
X27902Y13901
X26902Y13901
X25902Y13901
X25902Y14901
X26902Y14901
X27902Y14901
X28902Y14901
X29902Y14901
X30902Y14901
X31902Y14901
X32902Y14901
X33902Y14901
X34902Y14901
X35902Y14901
X36902Y14901
X37902Y14901
X38902Y14901
X39902Y14901
X36182Y20901
X36022Y21901
X36182Y22901
X36022Y23901
X36182Y24901
X36022Y25901
X35902Y32901
X34902Y32901
X33902Y32901
X32902Y32901
X31902Y32901
X30902Y32901
X29902Y32901
X28902Y32901
X27902Y32901
X26902Y32901
X25902Y32901
X25902Y33901
X26902Y33901
X27902Y33901
X28902Y33901
X29902Y33901
X30902Y33901
X31902Y33901
X32902Y33901
X33902Y33901
X34902Y33901
X35902Y33901
X36902Y33901
X37902Y33901
X37902Y32901
X36902Y32901
X38902Y32901
X39902Y32901
X40902Y32901
X41902Y32901
X42902Y32901
X43902Y32901
X44902Y32901
X45902Y32901
X46902Y32901
X47902Y32901
X47902Y33901
X46902Y33901
X45902Y33901
X44902Y33901
X43902Y33901
X42902Y33901
X41902Y33901
X40902Y33901
X39902Y33901
X38902Y33901
X39250Y36401
X38250Y36401
X37250Y36401
X36250Y36401
X35250Y36401
X34250Y36401
X33250Y36401
X32250Y36401
X31250Y36401
X30250Y36401
X29250Y36401
X29250Y37401
X30250Y37401
X31250Y37401
X32250Y37401
X33250Y37401
X34250Y37401
X35250Y37401
X36250Y37401
X37250Y37401
X38250Y37401
X39250Y37401
X40250Y37401
X41250Y37401
X41250Y36401
X40250Y36401
X42250Y36401
X43250Y36401
X43250Y37401
X42250Y37401
X56652Y30901
X57652Y30901
X57652Y29901
X56652Y29901
X56652Y28901
X57652Y28901
X19152Y3731
X18152Y3571
X17152Y3731
X16152Y3571
X15152Y3731
X14152Y3571
X9402Y20901
X8402Y20901
X8402Y21901
X9402Y21901
X9402Y22901
X8402Y22901
X16302Y24901
X16302Y25901
X16302Y26901
X16302Y27901
X16302Y28901
X16302Y29901
T05
X17902Y24901
X17902Y22401
X16652Y22401
X20402Y20151
X21902Y20151
X8652Y25151
X8652Y26651
X22902Y1651
X24402Y1651
X29402Y1351
X31002Y1351
X32902Y1401
X34402Y1401
X38902Y1401
X40402Y1401
X44152Y1401
X45902Y1401
X49402Y7651
X49402Y9401
T06
X49902Y15651
X49902Y32151
X23902Y33401
X23902Y14401
T07
X8152Y1651
X27152Y1651
X49652Y1651
X53902Y29901
X53902Y39151
X49652Y39157
X8152Y39157
M30
