G75*
G70*
%OFA0B0*%
%FSLAX24Y24*%
%IPPOS*%
%LPD*%
%AMOC8*
5,1,8,0,0,1.08239X$1,22.5*
%
%ADD10R,0.0945X0.0787*%
%ADD11R,0.0433X0.0394*%
%ADD12R,0.0827X0.0512*%
%ADD13R,0.0394X0.0433*%
%ADD14R,0.0354X0.0276*%
%ADD15R,0.0591X0.0433*%
%ADD16R,0.0787X0.0472*%
%ADD17R,0.0750X0.0300*%
D10*
X019402Y013364D03*
X019402Y014939D03*
X032152Y022364D03*
X032152Y023939D03*
D11*
X014902Y009567D03*
X014902Y010236D03*
X014052Y012767D03*
X014052Y013436D03*
X009152Y013317D03*
X009152Y013986D03*
X009152Y014817D03*
X009152Y015486D03*
X015402Y017567D03*
X015402Y018236D03*
X020902Y014986D03*
X020902Y014317D03*
X020902Y013486D03*
X020902Y012817D03*
X027402Y008486D03*
X027402Y007817D03*
X025902Y007086D03*
X025902Y006417D03*
X030352Y008467D03*
X030352Y009136D03*
X033902Y005986D03*
X033902Y005317D03*
X038152Y008567D03*
X038152Y009236D03*
X041902Y005486D03*
X041902Y004817D03*
X042652Y003986D03*
X042652Y003317D03*
X044152Y003067D03*
X044152Y003736D03*
X038902Y003486D03*
X038902Y002817D03*
X025902Y022817D03*
X025902Y023486D03*
D12*
X029902Y022663D03*
X029902Y021639D03*
X010652Y014913D03*
X010652Y013889D03*
D13*
X020817Y021151D03*
X021487Y021151D03*
X023067Y021101D03*
X023737Y021101D03*
X025067Y021151D03*
X025737Y021151D03*
X029317Y020901D03*
X029987Y020901D03*
X031317Y021251D03*
X031987Y021251D03*
X029987Y023401D03*
X029317Y023401D03*
X031317Y025151D03*
X031987Y025151D03*
X027587Y025701D03*
X026917Y025701D03*
X020737Y026151D03*
X020067Y026151D03*
X038817Y004276D03*
X039487Y004276D03*
X037487Y002651D03*
X036817Y002651D03*
X041817Y002401D03*
X042487Y002401D03*
D14*
X025902Y007895D03*
X025902Y008407D03*
D15*
X029152Y005025D03*
X029152Y004277D03*
X030902Y004527D03*
X030902Y005275D03*
X034152Y008527D03*
X034152Y009275D03*
X035902Y009275D03*
X035902Y008527D03*
X041902Y008527D03*
X041902Y009275D03*
X043652Y009275D03*
X043652Y008527D03*
X048152Y009027D03*
X048152Y009775D03*
D16*
X045902Y004124D03*
X045902Y003179D03*
X040402Y004679D03*
X040402Y005624D03*
X039402Y008429D03*
X039402Y009374D03*
X032002Y009424D03*
X032002Y008479D03*
D17*
X032702Y003826D03*
X032702Y002776D03*
M02*
