G75*
G70*
%OFA0B0*%
%FSLAX24Y24*%
%IPPOS*%
%LPD*%
%AMOC8*
5,1,8,0,0,1.08239X$1,22.5*
%
%ADD10C,0.0000*%
%ADD11C,0.1000*%
%ADD12R,0.1181X0.0945*%
%ADD13C,0.0276*%
D10*
X006652Y000151D02*
X006652Y040657D01*
X062402Y040657D01*
X062402Y000151D01*
X006652Y000151D01*
X007432Y001651D02*
X007434Y001704D01*
X007440Y001757D01*
X007450Y001809D01*
X007463Y001861D01*
X007481Y001911D01*
X007502Y001960D01*
X007526Y002007D01*
X007554Y002052D01*
X007586Y002095D01*
X007620Y002136D01*
X007657Y002174D01*
X007697Y002209D01*
X007740Y002241D01*
X007784Y002270D01*
X007831Y002296D01*
X007880Y002317D01*
X007930Y002336D01*
X007981Y002350D01*
X008033Y002361D01*
X008086Y002368D01*
X008139Y002371D01*
X008192Y002370D01*
X008245Y002365D01*
X008297Y002356D01*
X008349Y002344D01*
X008400Y002327D01*
X008449Y002307D01*
X008497Y002283D01*
X008542Y002256D01*
X008586Y002226D01*
X008627Y002192D01*
X008666Y002155D01*
X008702Y002116D01*
X008734Y002074D01*
X008764Y002030D01*
X008790Y001984D01*
X008813Y001936D01*
X008833Y001886D01*
X008848Y001835D01*
X008860Y001783D01*
X008868Y001731D01*
X008872Y001678D01*
X008872Y001624D01*
X008868Y001571D01*
X008860Y001519D01*
X008848Y001467D01*
X008833Y001416D01*
X008813Y001366D01*
X008790Y001318D01*
X008764Y001272D01*
X008734Y001228D01*
X008702Y001186D01*
X008666Y001147D01*
X008627Y001110D01*
X008586Y001076D01*
X008542Y001046D01*
X008497Y001019D01*
X008449Y000995D01*
X008400Y000975D01*
X008349Y000958D01*
X008297Y000946D01*
X008245Y000937D01*
X008192Y000932D01*
X008139Y000931D01*
X008086Y000934D01*
X008033Y000941D01*
X007981Y000952D01*
X007930Y000966D01*
X007880Y000985D01*
X007831Y001006D01*
X007784Y001032D01*
X007740Y001061D01*
X007697Y001093D01*
X007657Y001128D01*
X007620Y001166D01*
X007586Y001207D01*
X007554Y001250D01*
X007526Y001295D01*
X007502Y001342D01*
X007481Y001391D01*
X007463Y001441D01*
X007450Y001493D01*
X007440Y001545D01*
X007434Y001598D01*
X007432Y001651D01*
X023277Y014401D02*
X023279Y014451D01*
X023285Y014500D01*
X023295Y014549D01*
X023308Y014596D01*
X023326Y014643D01*
X023347Y014688D01*
X023371Y014731D01*
X023399Y014772D01*
X023430Y014811D01*
X023464Y014847D01*
X023501Y014881D01*
X023541Y014911D01*
X023582Y014938D01*
X023626Y014962D01*
X023671Y014982D01*
X023718Y014998D01*
X023766Y015011D01*
X023815Y015020D01*
X023865Y015025D01*
X023914Y015026D01*
X023964Y015023D01*
X024013Y015016D01*
X024062Y015005D01*
X024109Y014991D01*
X024155Y014972D01*
X024200Y014950D01*
X024243Y014925D01*
X024283Y014896D01*
X024321Y014864D01*
X024357Y014830D01*
X024390Y014792D01*
X024419Y014752D01*
X024445Y014710D01*
X024468Y014666D01*
X024487Y014620D01*
X024503Y014573D01*
X024515Y014524D01*
X024523Y014475D01*
X024527Y014426D01*
X024527Y014376D01*
X024523Y014327D01*
X024515Y014278D01*
X024503Y014229D01*
X024487Y014182D01*
X024468Y014136D01*
X024445Y014092D01*
X024419Y014050D01*
X024390Y014010D01*
X024357Y013972D01*
X024321Y013938D01*
X024283Y013906D01*
X024243Y013877D01*
X024200Y013852D01*
X024155Y013830D01*
X024109Y013811D01*
X024062Y013797D01*
X024013Y013786D01*
X023964Y013779D01*
X023914Y013776D01*
X023865Y013777D01*
X023815Y013782D01*
X023766Y013791D01*
X023718Y013804D01*
X023671Y013820D01*
X023626Y013840D01*
X023582Y013864D01*
X023541Y013891D01*
X023501Y013921D01*
X023464Y013955D01*
X023430Y013991D01*
X023399Y014030D01*
X023371Y014071D01*
X023347Y014114D01*
X023326Y014159D01*
X023308Y014206D01*
X023295Y014253D01*
X023285Y014302D01*
X023279Y014351D01*
X023277Y014401D01*
X026432Y001651D02*
X026434Y001704D01*
X026440Y001757D01*
X026450Y001809D01*
X026463Y001861D01*
X026481Y001911D01*
X026502Y001960D01*
X026526Y002007D01*
X026554Y002052D01*
X026586Y002095D01*
X026620Y002136D01*
X026657Y002174D01*
X026697Y002209D01*
X026740Y002241D01*
X026784Y002270D01*
X026831Y002296D01*
X026880Y002317D01*
X026930Y002336D01*
X026981Y002350D01*
X027033Y002361D01*
X027086Y002368D01*
X027139Y002371D01*
X027192Y002370D01*
X027245Y002365D01*
X027297Y002356D01*
X027349Y002344D01*
X027400Y002327D01*
X027449Y002307D01*
X027497Y002283D01*
X027542Y002256D01*
X027586Y002226D01*
X027627Y002192D01*
X027666Y002155D01*
X027702Y002116D01*
X027734Y002074D01*
X027764Y002030D01*
X027790Y001984D01*
X027813Y001936D01*
X027833Y001886D01*
X027848Y001835D01*
X027860Y001783D01*
X027868Y001731D01*
X027872Y001678D01*
X027872Y001624D01*
X027868Y001571D01*
X027860Y001519D01*
X027848Y001467D01*
X027833Y001416D01*
X027813Y001366D01*
X027790Y001318D01*
X027764Y001272D01*
X027734Y001228D01*
X027702Y001186D01*
X027666Y001147D01*
X027627Y001110D01*
X027586Y001076D01*
X027542Y001046D01*
X027497Y001019D01*
X027449Y000995D01*
X027400Y000975D01*
X027349Y000958D01*
X027297Y000946D01*
X027245Y000937D01*
X027192Y000932D01*
X027139Y000931D01*
X027086Y000934D01*
X027033Y000941D01*
X026981Y000952D01*
X026930Y000966D01*
X026880Y000985D01*
X026831Y001006D01*
X026784Y001032D01*
X026740Y001061D01*
X026697Y001093D01*
X026657Y001128D01*
X026620Y001166D01*
X026586Y001207D01*
X026554Y001250D01*
X026526Y001295D01*
X026502Y001342D01*
X026481Y001391D01*
X026463Y001441D01*
X026450Y001493D01*
X026440Y001545D01*
X026434Y001598D01*
X026432Y001651D01*
X048932Y001651D02*
X048934Y001704D01*
X048940Y001757D01*
X048950Y001809D01*
X048963Y001861D01*
X048981Y001911D01*
X049002Y001960D01*
X049026Y002007D01*
X049054Y002052D01*
X049086Y002095D01*
X049120Y002136D01*
X049157Y002174D01*
X049197Y002209D01*
X049240Y002241D01*
X049284Y002270D01*
X049331Y002296D01*
X049380Y002317D01*
X049430Y002336D01*
X049481Y002350D01*
X049533Y002361D01*
X049586Y002368D01*
X049639Y002371D01*
X049692Y002370D01*
X049745Y002365D01*
X049797Y002356D01*
X049849Y002344D01*
X049900Y002327D01*
X049949Y002307D01*
X049997Y002283D01*
X050042Y002256D01*
X050086Y002226D01*
X050127Y002192D01*
X050166Y002155D01*
X050202Y002116D01*
X050234Y002074D01*
X050264Y002030D01*
X050290Y001984D01*
X050313Y001936D01*
X050333Y001886D01*
X050348Y001835D01*
X050360Y001783D01*
X050368Y001731D01*
X050372Y001678D01*
X050372Y001624D01*
X050368Y001571D01*
X050360Y001519D01*
X050348Y001467D01*
X050333Y001416D01*
X050313Y001366D01*
X050290Y001318D01*
X050264Y001272D01*
X050234Y001228D01*
X050202Y001186D01*
X050166Y001147D01*
X050127Y001110D01*
X050086Y001076D01*
X050042Y001046D01*
X049997Y001019D01*
X049949Y000995D01*
X049900Y000975D01*
X049849Y000958D01*
X049797Y000946D01*
X049745Y000937D01*
X049692Y000932D01*
X049639Y000931D01*
X049586Y000934D01*
X049533Y000941D01*
X049481Y000952D01*
X049430Y000966D01*
X049380Y000985D01*
X049331Y001006D01*
X049284Y001032D01*
X049240Y001061D01*
X049197Y001093D01*
X049157Y001128D01*
X049120Y001166D01*
X049086Y001207D01*
X049054Y001250D01*
X049026Y001295D01*
X049002Y001342D01*
X048981Y001391D01*
X048963Y001441D01*
X048950Y001493D01*
X048940Y001545D01*
X048934Y001598D01*
X048932Y001651D01*
X051659Y000526D02*
X051661Y000547D01*
X051667Y000567D01*
X051676Y000587D01*
X051688Y000604D01*
X051703Y000618D01*
X051721Y000630D01*
X051741Y000638D01*
X051761Y000643D01*
X051782Y000644D01*
X051803Y000641D01*
X051823Y000635D01*
X051842Y000624D01*
X051859Y000611D01*
X051872Y000595D01*
X051883Y000577D01*
X051891Y000557D01*
X051895Y000537D01*
X051895Y000515D01*
X051891Y000495D01*
X051883Y000475D01*
X051872Y000457D01*
X051859Y000441D01*
X051842Y000428D01*
X051823Y000417D01*
X051803Y000411D01*
X051782Y000408D01*
X051761Y000409D01*
X051741Y000414D01*
X051721Y000422D01*
X051703Y000434D01*
X051688Y000448D01*
X051676Y000465D01*
X051667Y000485D01*
X051661Y000505D01*
X051659Y000526D01*
X049277Y015651D02*
X049279Y015701D01*
X049285Y015750D01*
X049295Y015799D01*
X049308Y015846D01*
X049326Y015893D01*
X049347Y015938D01*
X049371Y015981D01*
X049399Y016022D01*
X049430Y016061D01*
X049464Y016097D01*
X049501Y016131D01*
X049541Y016161D01*
X049582Y016188D01*
X049626Y016212D01*
X049671Y016232D01*
X049718Y016248D01*
X049766Y016261D01*
X049815Y016270D01*
X049865Y016275D01*
X049914Y016276D01*
X049964Y016273D01*
X050013Y016266D01*
X050062Y016255D01*
X050109Y016241D01*
X050155Y016222D01*
X050200Y016200D01*
X050243Y016175D01*
X050283Y016146D01*
X050321Y016114D01*
X050357Y016080D01*
X050390Y016042D01*
X050419Y016002D01*
X050445Y015960D01*
X050468Y015916D01*
X050487Y015870D01*
X050503Y015823D01*
X050515Y015774D01*
X050523Y015725D01*
X050527Y015676D01*
X050527Y015626D01*
X050523Y015577D01*
X050515Y015528D01*
X050503Y015479D01*
X050487Y015432D01*
X050468Y015386D01*
X050445Y015342D01*
X050419Y015300D01*
X050390Y015260D01*
X050357Y015222D01*
X050321Y015188D01*
X050283Y015156D01*
X050243Y015127D01*
X050200Y015102D01*
X050155Y015080D01*
X050109Y015061D01*
X050062Y015047D01*
X050013Y015036D01*
X049964Y015029D01*
X049914Y015026D01*
X049865Y015027D01*
X049815Y015032D01*
X049766Y015041D01*
X049718Y015054D01*
X049671Y015070D01*
X049626Y015090D01*
X049582Y015114D01*
X049541Y015141D01*
X049501Y015171D01*
X049464Y015205D01*
X049430Y015241D01*
X049399Y015280D01*
X049371Y015321D01*
X049347Y015364D01*
X049326Y015409D01*
X049308Y015456D01*
X049295Y015503D01*
X049285Y015552D01*
X049279Y015601D01*
X049277Y015651D01*
X052534Y027526D02*
X052536Y027547D01*
X052542Y027567D01*
X052551Y027587D01*
X052563Y027604D01*
X052578Y027618D01*
X052596Y027630D01*
X052616Y027638D01*
X052636Y027643D01*
X052657Y027644D01*
X052678Y027641D01*
X052698Y027635D01*
X052717Y027624D01*
X052734Y027611D01*
X052747Y027595D01*
X052758Y027577D01*
X052766Y027557D01*
X052770Y027537D01*
X052770Y027515D01*
X052766Y027495D01*
X052758Y027475D01*
X052747Y027457D01*
X052734Y027441D01*
X052717Y027428D01*
X052698Y027417D01*
X052678Y027411D01*
X052657Y027408D01*
X052636Y027409D01*
X052616Y027414D01*
X052596Y027422D01*
X052578Y027434D01*
X052563Y027448D01*
X052551Y027465D01*
X052542Y027485D01*
X052536Y027505D01*
X052534Y027526D01*
X053182Y029901D02*
X053184Y029954D01*
X053190Y030007D01*
X053200Y030059D01*
X053213Y030111D01*
X053231Y030161D01*
X053252Y030210D01*
X053276Y030257D01*
X053304Y030302D01*
X053336Y030345D01*
X053370Y030386D01*
X053407Y030424D01*
X053447Y030459D01*
X053490Y030491D01*
X053534Y030520D01*
X053581Y030546D01*
X053630Y030567D01*
X053680Y030586D01*
X053731Y030600D01*
X053783Y030611D01*
X053836Y030618D01*
X053889Y030621D01*
X053942Y030620D01*
X053995Y030615D01*
X054047Y030606D01*
X054099Y030594D01*
X054150Y030577D01*
X054199Y030557D01*
X054247Y030533D01*
X054292Y030506D01*
X054336Y030476D01*
X054377Y030442D01*
X054416Y030405D01*
X054452Y030366D01*
X054484Y030324D01*
X054514Y030280D01*
X054540Y030234D01*
X054563Y030186D01*
X054583Y030136D01*
X054598Y030085D01*
X054610Y030033D01*
X054618Y029981D01*
X054622Y029928D01*
X054622Y029874D01*
X054618Y029821D01*
X054610Y029769D01*
X054598Y029717D01*
X054583Y029666D01*
X054563Y029616D01*
X054540Y029568D01*
X054514Y029522D01*
X054484Y029478D01*
X054452Y029436D01*
X054416Y029397D01*
X054377Y029360D01*
X054336Y029326D01*
X054292Y029296D01*
X054247Y029269D01*
X054199Y029245D01*
X054150Y029225D01*
X054099Y029208D01*
X054047Y029196D01*
X053995Y029187D01*
X053942Y029182D01*
X053889Y029181D01*
X053836Y029184D01*
X053783Y029191D01*
X053731Y029202D01*
X053680Y029216D01*
X053630Y029235D01*
X053581Y029256D01*
X053534Y029282D01*
X053490Y029311D01*
X053447Y029343D01*
X053407Y029378D01*
X053370Y029416D01*
X053336Y029457D01*
X053304Y029500D01*
X053276Y029545D01*
X053252Y029592D01*
X053231Y029641D01*
X053213Y029691D01*
X053200Y029743D01*
X053190Y029795D01*
X053184Y029848D01*
X053182Y029901D01*
X052552Y032151D02*
X052552Y037033D01*
X053182Y039151D02*
X053184Y039204D01*
X053190Y039257D01*
X053200Y039309D01*
X053213Y039361D01*
X053231Y039411D01*
X053252Y039460D01*
X053276Y039507D01*
X053304Y039552D01*
X053336Y039595D01*
X053370Y039636D01*
X053407Y039674D01*
X053447Y039709D01*
X053490Y039741D01*
X053534Y039770D01*
X053581Y039796D01*
X053630Y039817D01*
X053680Y039836D01*
X053731Y039850D01*
X053783Y039861D01*
X053836Y039868D01*
X053889Y039871D01*
X053942Y039870D01*
X053995Y039865D01*
X054047Y039856D01*
X054099Y039844D01*
X054150Y039827D01*
X054199Y039807D01*
X054247Y039783D01*
X054292Y039756D01*
X054336Y039726D01*
X054377Y039692D01*
X054416Y039655D01*
X054452Y039616D01*
X054484Y039574D01*
X054514Y039530D01*
X054540Y039484D01*
X054563Y039436D01*
X054583Y039386D01*
X054598Y039335D01*
X054610Y039283D01*
X054618Y039231D01*
X054622Y039178D01*
X054622Y039124D01*
X054618Y039071D01*
X054610Y039019D01*
X054598Y038967D01*
X054583Y038916D01*
X054563Y038866D01*
X054540Y038818D01*
X054514Y038772D01*
X054484Y038728D01*
X054452Y038686D01*
X054416Y038647D01*
X054377Y038610D01*
X054336Y038576D01*
X054292Y038546D01*
X054247Y038519D01*
X054199Y038495D01*
X054150Y038475D01*
X054099Y038458D01*
X054047Y038446D01*
X053995Y038437D01*
X053942Y038432D01*
X053889Y038431D01*
X053836Y038434D01*
X053783Y038441D01*
X053731Y038452D01*
X053680Y038466D01*
X053630Y038485D01*
X053581Y038506D01*
X053534Y038532D01*
X053490Y038561D01*
X053447Y038593D01*
X053407Y038628D01*
X053370Y038666D01*
X053336Y038707D01*
X053304Y038750D01*
X053276Y038795D01*
X053252Y038842D01*
X053231Y038891D01*
X053213Y038941D01*
X053200Y038993D01*
X053190Y039045D01*
X053184Y039098D01*
X053182Y039151D01*
X051659Y040276D02*
X051661Y040297D01*
X051667Y040317D01*
X051676Y040337D01*
X051688Y040354D01*
X051703Y040368D01*
X051721Y040380D01*
X051741Y040388D01*
X051761Y040393D01*
X051782Y040394D01*
X051803Y040391D01*
X051823Y040385D01*
X051842Y040374D01*
X051859Y040361D01*
X051872Y040345D01*
X051883Y040327D01*
X051891Y040307D01*
X051895Y040287D01*
X051895Y040265D01*
X051891Y040245D01*
X051883Y040225D01*
X051872Y040207D01*
X051859Y040191D01*
X051842Y040178D01*
X051823Y040167D01*
X051803Y040161D01*
X051782Y040158D01*
X051761Y040159D01*
X051741Y040164D01*
X051721Y040172D01*
X051703Y040184D01*
X051688Y040198D01*
X051676Y040215D01*
X051667Y040235D01*
X051661Y040255D01*
X051659Y040276D01*
X048932Y039157D02*
X048934Y039210D01*
X048940Y039263D01*
X048950Y039315D01*
X048963Y039367D01*
X048981Y039417D01*
X049002Y039466D01*
X049026Y039513D01*
X049054Y039558D01*
X049086Y039601D01*
X049120Y039642D01*
X049157Y039680D01*
X049197Y039715D01*
X049240Y039747D01*
X049284Y039776D01*
X049331Y039802D01*
X049380Y039823D01*
X049430Y039842D01*
X049481Y039856D01*
X049533Y039867D01*
X049586Y039874D01*
X049639Y039877D01*
X049692Y039876D01*
X049745Y039871D01*
X049797Y039862D01*
X049849Y039850D01*
X049900Y039833D01*
X049949Y039813D01*
X049997Y039789D01*
X050042Y039762D01*
X050086Y039732D01*
X050127Y039698D01*
X050166Y039661D01*
X050202Y039622D01*
X050234Y039580D01*
X050264Y039536D01*
X050290Y039490D01*
X050313Y039442D01*
X050333Y039392D01*
X050348Y039341D01*
X050360Y039289D01*
X050368Y039237D01*
X050372Y039184D01*
X050372Y039130D01*
X050368Y039077D01*
X050360Y039025D01*
X050348Y038973D01*
X050333Y038922D01*
X050313Y038872D01*
X050290Y038824D01*
X050264Y038778D01*
X050234Y038734D01*
X050202Y038692D01*
X050166Y038653D01*
X050127Y038616D01*
X050086Y038582D01*
X050042Y038552D01*
X049997Y038525D01*
X049949Y038501D01*
X049900Y038481D01*
X049849Y038464D01*
X049797Y038452D01*
X049745Y038443D01*
X049692Y038438D01*
X049639Y038437D01*
X049586Y038440D01*
X049533Y038447D01*
X049481Y038458D01*
X049430Y038472D01*
X049380Y038491D01*
X049331Y038512D01*
X049284Y038538D01*
X049240Y038567D01*
X049197Y038599D01*
X049157Y038634D01*
X049120Y038672D01*
X049086Y038713D01*
X049054Y038756D01*
X049026Y038801D01*
X049002Y038848D01*
X048981Y038897D01*
X048963Y038947D01*
X048950Y038999D01*
X048940Y039051D01*
X048934Y039104D01*
X048932Y039157D01*
X049277Y032151D02*
X049279Y032201D01*
X049285Y032250D01*
X049295Y032299D01*
X049308Y032346D01*
X049326Y032393D01*
X049347Y032438D01*
X049371Y032481D01*
X049399Y032522D01*
X049430Y032561D01*
X049464Y032597D01*
X049501Y032631D01*
X049541Y032661D01*
X049582Y032688D01*
X049626Y032712D01*
X049671Y032732D01*
X049718Y032748D01*
X049766Y032761D01*
X049815Y032770D01*
X049865Y032775D01*
X049914Y032776D01*
X049964Y032773D01*
X050013Y032766D01*
X050062Y032755D01*
X050109Y032741D01*
X050155Y032722D01*
X050200Y032700D01*
X050243Y032675D01*
X050283Y032646D01*
X050321Y032614D01*
X050357Y032580D01*
X050390Y032542D01*
X050419Y032502D01*
X050445Y032460D01*
X050468Y032416D01*
X050487Y032370D01*
X050503Y032323D01*
X050515Y032274D01*
X050523Y032225D01*
X050527Y032176D01*
X050527Y032126D01*
X050523Y032077D01*
X050515Y032028D01*
X050503Y031979D01*
X050487Y031932D01*
X050468Y031886D01*
X050445Y031842D01*
X050419Y031800D01*
X050390Y031760D01*
X050357Y031722D01*
X050321Y031688D01*
X050283Y031656D01*
X050243Y031627D01*
X050200Y031602D01*
X050155Y031580D01*
X050109Y031561D01*
X050062Y031547D01*
X050013Y031536D01*
X049964Y031529D01*
X049914Y031526D01*
X049865Y031527D01*
X049815Y031532D01*
X049766Y031541D01*
X049718Y031554D01*
X049671Y031570D01*
X049626Y031590D01*
X049582Y031614D01*
X049541Y031641D01*
X049501Y031671D01*
X049464Y031705D01*
X049430Y031741D01*
X049399Y031780D01*
X049371Y031821D01*
X049347Y031864D01*
X049326Y031909D01*
X049308Y031956D01*
X049295Y032003D01*
X049285Y032052D01*
X049279Y032101D01*
X049277Y032151D01*
X062034Y027526D02*
X062036Y027547D01*
X062042Y027567D01*
X062051Y027587D01*
X062063Y027604D01*
X062078Y027618D01*
X062096Y027630D01*
X062116Y027638D01*
X062136Y027643D01*
X062157Y027644D01*
X062178Y027641D01*
X062198Y027635D01*
X062217Y027624D01*
X062234Y027611D01*
X062247Y027595D01*
X062258Y027577D01*
X062266Y027557D01*
X062270Y027537D01*
X062270Y027515D01*
X062266Y027495D01*
X062258Y027475D01*
X062247Y027457D01*
X062234Y027441D01*
X062217Y027428D01*
X062198Y027417D01*
X062178Y027411D01*
X062157Y027408D01*
X062136Y027409D01*
X062116Y027414D01*
X062096Y027422D01*
X062078Y027434D01*
X062063Y027448D01*
X062051Y027465D01*
X062042Y027485D01*
X062036Y027505D01*
X062034Y027526D01*
X023277Y033401D02*
X023279Y033451D01*
X023285Y033500D01*
X023295Y033549D01*
X023308Y033596D01*
X023326Y033643D01*
X023347Y033688D01*
X023371Y033731D01*
X023399Y033772D01*
X023430Y033811D01*
X023464Y033847D01*
X023501Y033881D01*
X023541Y033911D01*
X023582Y033938D01*
X023626Y033962D01*
X023671Y033982D01*
X023718Y033998D01*
X023766Y034011D01*
X023815Y034020D01*
X023865Y034025D01*
X023914Y034026D01*
X023964Y034023D01*
X024013Y034016D01*
X024062Y034005D01*
X024109Y033991D01*
X024155Y033972D01*
X024200Y033950D01*
X024243Y033925D01*
X024283Y033896D01*
X024321Y033864D01*
X024357Y033830D01*
X024390Y033792D01*
X024419Y033752D01*
X024445Y033710D01*
X024468Y033666D01*
X024487Y033620D01*
X024503Y033573D01*
X024515Y033524D01*
X024523Y033475D01*
X024527Y033426D01*
X024527Y033376D01*
X024523Y033327D01*
X024515Y033278D01*
X024503Y033229D01*
X024487Y033182D01*
X024468Y033136D01*
X024445Y033092D01*
X024419Y033050D01*
X024390Y033010D01*
X024357Y032972D01*
X024321Y032938D01*
X024283Y032906D01*
X024243Y032877D01*
X024200Y032852D01*
X024155Y032830D01*
X024109Y032811D01*
X024062Y032797D01*
X024013Y032786D01*
X023964Y032779D01*
X023914Y032776D01*
X023865Y032777D01*
X023815Y032782D01*
X023766Y032791D01*
X023718Y032804D01*
X023671Y032820D01*
X023626Y032840D01*
X023582Y032864D01*
X023541Y032891D01*
X023501Y032921D01*
X023464Y032955D01*
X023430Y032991D01*
X023399Y033030D01*
X023371Y033071D01*
X023347Y033114D01*
X023326Y033159D01*
X023308Y033206D01*
X023295Y033253D01*
X023285Y033302D01*
X023279Y033351D01*
X023277Y033401D01*
X007432Y039157D02*
X007434Y039210D01*
X007440Y039263D01*
X007450Y039315D01*
X007463Y039367D01*
X007481Y039417D01*
X007502Y039466D01*
X007526Y039513D01*
X007554Y039558D01*
X007586Y039601D01*
X007620Y039642D01*
X007657Y039680D01*
X007697Y039715D01*
X007740Y039747D01*
X007784Y039776D01*
X007831Y039802D01*
X007880Y039823D01*
X007930Y039842D01*
X007981Y039856D01*
X008033Y039867D01*
X008086Y039874D01*
X008139Y039877D01*
X008192Y039876D01*
X008245Y039871D01*
X008297Y039862D01*
X008349Y039850D01*
X008400Y039833D01*
X008449Y039813D01*
X008497Y039789D01*
X008542Y039762D01*
X008586Y039732D01*
X008627Y039698D01*
X008666Y039661D01*
X008702Y039622D01*
X008734Y039580D01*
X008764Y039536D01*
X008790Y039490D01*
X008813Y039442D01*
X008833Y039392D01*
X008848Y039341D01*
X008860Y039289D01*
X008868Y039237D01*
X008872Y039184D01*
X008872Y039130D01*
X008868Y039077D01*
X008860Y039025D01*
X008848Y038973D01*
X008833Y038922D01*
X008813Y038872D01*
X008790Y038824D01*
X008764Y038778D01*
X008734Y038734D01*
X008702Y038692D01*
X008666Y038653D01*
X008627Y038616D01*
X008586Y038582D01*
X008542Y038552D01*
X008497Y038525D01*
X008449Y038501D01*
X008400Y038481D01*
X008349Y038464D01*
X008297Y038452D01*
X008245Y038443D01*
X008192Y038438D01*
X008139Y038437D01*
X008086Y038440D01*
X008033Y038447D01*
X007981Y038458D01*
X007930Y038472D01*
X007880Y038491D01*
X007831Y038512D01*
X007784Y038538D01*
X007740Y038567D01*
X007697Y038599D01*
X007657Y038634D01*
X007620Y038672D01*
X007586Y038713D01*
X007554Y038756D01*
X007526Y038801D01*
X007502Y038848D01*
X007481Y038897D01*
X007463Y038947D01*
X007450Y038999D01*
X007440Y039051D01*
X007434Y039104D01*
X007432Y039157D01*
D11*
X051777Y039401D02*
X051777Y001401D01*
X053527Y027526D02*
X061277Y027526D01*
D12*
X053143Y034592D03*
D13*
X053261Y032289D02*
X052867Y032289D01*
X052867Y036895D02*
X053261Y036895D01*
M02*
